<svg width="32" height="32" viewBox="0 0 32 32" fill="none" xmlns="http://www.w3.org/2000/svg">
<path id="Subtract" fill-rule="evenodd" clip-rule="evenodd" d="M24 0C28.4183 0 32 3.58172 32 8V24C32 28.4183 28.4183 32 24 32H8C3.58172 32 0 28.4183 0 24V8C0 3.58172 3.58172 0 8 0H24ZM26.2484 21.8777C26.5364 22.0801 26.7812 22.3378 26.9684 22.6358C27.1926 23.005 27.3231 23.4234 27.3486 23.8545C27.374 24.2857 27.2936 24.7165 27.1144 25.1094C26.9352 25.5024 26.6626 25.8455 26.3204 26.109C25.9782 26.3725 25.5767 26.5482 25.151 26.621C24.7253 26.6937 24.2883 26.6613 23.878 26.5264C23.4676 26.3916 23.0966 26.1584 22.797 25.8473C22.4975 25.5361 22.2786 25.1565 22.1594 24.7414C22.0402 24.3263 22.0244 23.8883 22.1132 23.4657C22.2633 22.81 22.2825 22.1312 22.1697 21.4682C22.0569 20.8051 21.8144 20.1709 21.456 19.6017C21.0976 19.0326 20.6305 18.5397 20.0812 18.1515C19.532 17.7633 18.9116 17.4872 18.2555 17.3392C17.7484 17.216 17.2889 16.9456 16.9349 16.5621C16.5809 16.1786 16.3481 15.699 16.2658 15.1836C16.1835 14.6682 16.2553 14.14 16.4722 13.6653C16.6891 13.1906 17.0414 12.7906 17.4849 12.5154C17.9284 12.2403 18.4433 12.1023 18.965 12.1189C19.4866 12.1355 19.9918 12.3058 20.417 12.6085C20.8421 12.9111 21.1684 13.3327 21.3547 13.8203C21.5411 14.3078 21.5792 14.8395 21.4644 15.3486C21.1657 16.6658 21.4005 18.0478 22.1175 19.1925C22.8346 20.3371 23.9756 21.1514 25.2912 21.4573C25.635 21.5325 25.9605 21.6754 26.2484 21.8777ZM10.6857 19.6875C10.6857 19.6929 10.6887 19.6978 10.6934 19.7004C11.1548 19.9502 11.6801 20.0574 12.2027 20.0082C12.7281 19.9587 13.2268 19.7533 13.6347 19.4184C14.0427 19.0836 14.3412 18.6344 14.4921 18.1287C14.643 17.623 14.6394 17.0837 14.4816 16.58C14.2817 15.9378 14.2104 15.2625 14.272 14.5927C14.3336 13.9229 14.5268 13.2718 14.8405 12.6768C15.1542 12.0819 15.5822 11.5547 16.1001 11.1254C16.6179 10.6962 17.2154 10.3734 17.8582 10.1755C18.3568 10.0194 18.798 9.7192 19.1264 9.31286C19.4548 8.90651 19.6556 8.41211 19.7037 7.89186C19.7517 7.37161 19.6448 6.84877 19.3964 6.38917C19.148 5.92954 18.7692 5.55365 18.3077 5.30881C17.8461 5.06398 17.3225 4.96111 16.8027 5.01319C16.2828 5.06525 15.79 5.2699 15.3862 5.60142C14.9824 5.93291 14.6856 6.37646 14.5333 6.87621C14.381 7.37596 14.3799 7.9096 14.5302 8.40997C14.9246 9.70175 14.7912 11.0972 14.1592 12.2909C13.5272 13.4846 12.4481 14.3793 11.158 14.7792C10.6487 14.9268 10.1955 15.224 9.85697 15.6322C9.51847 16.0404 9.31029 16.5408 9.2594 17.0686C9.20855 17.5964 9.3173 18.1274 9.5716 18.5927C9.82447 19.0554 10.2096 19.432 10.6777 19.6744C10.6826 19.6769 10.6857 19.682 10.6857 19.6875ZM16.4827 19.5062C16.8025 19.3584 17.1486 19.2759 17.5007 19.2636C17.9333 19.2526 18.362 19.3478 18.7492 19.5407C19.1365 19.7338 19.4706 20.0187 19.7222 20.3706C19.9739 20.7226 20.1356 21.1309 20.193 21.5597C20.2503 21.9886 20.2018 22.425 20.0515 22.8308C19.9012 23.2365 19.6538 23.5993 19.3309 23.8873C19.008 24.1754 18.6195 24.3799 18.1993 24.483C17.7791 24.5862 17.34 24.5848 16.9204 24.4789C16.5009 24.3731 16.1136 24.1662 15.7926 23.8761C15.2995 23.4182 14.7208 23.0622 14.0899 22.8283C13.4589 22.5944 12.788 22.4873 12.1155 22.5131C11.4431 22.539 10.7824 22.6972 10.1712 22.9788C9.56006 23.2604 9.01046 23.6598 8.55387 24.1541C8.25374 24.4652 7.88203 24.698 7.47118 24.8323C7.06036 24.9666 6.62288 24.9982 6.19697 24.9246C5.77107 24.8509 5.36969 24.6742 5.02782 24.4097C4.68595 24.1452 4.41403 23.8011 4.23575 23.4073C4.05747 23.0136 3.9783 22.5822 4.00509 22.1508C4.03192 21.7194 4.16388 21.3011 4.38955 20.9325C4.61518 20.5638 4.9276 20.256 5.2996 20.0359C5.67157 19.8158 6.0918 19.69 6.52354 19.6697C6.87429 19.6559 7.22427 19.7121 7.5531 19.8348C7.88197 19.9576 8.18314 20.1445 8.43913 20.3847C9.42987 21.3016 10.7434 21.7889 12.0924 21.7401C13.4414 21.6913 14.7162 21.1103 15.6381 20.1243C15.8757 19.8641 16.1628 19.654 16.4827 19.5062Z" fill="#6F47EB"/>
</svg>
